<svg width="32" height="32" viewBox="0 0 32 32" fill="none" xmlns="http://www.w3.org/2000/svg">
<path d="M15.6045 1.25C16.0187 1.25001 16.3545 1.58579 16.3545 2V4.19629C20.7076 4.4891 22.9681 7.30873 23.3457 9.46484C23.4169 9.87272 23.1442 10.2616 22.7363 10.333C22.3287 10.404 21.9397 10.1312 21.8682 9.72363C21.6024 8.20642 19.7637 5.66993 15.6045 5.66992C11.3406 5.66999 9.35156 7.97726 9.35156 9.92188C9.3516 11.0497 9.62844 11.9399 10.1904 12.6553C10.7593 13.3794 11.6773 13.9975 13.0879 14.4678C13.7889 14.7015 14.7194 14.8892 15.8018 15.125C16.8573 15.355 18.0267 15.6249 19.1104 16.0186C20.1899 16.4108 21.2457 16.9469 22.0371 17.7441C22.85 18.563 23.3574 19.6319 23.3574 21C23.3574 23.5316 22.4139 25.2602 20.8838 26.3213C19.5999 27.2116 17.9794 27.5773 16.3545 27.6592V30C16.3545 30.4142 16.0187 30.75 15.6045 30.75C15.1904 30.7499 14.8545 30.4141 14.8545 30V27.6523C11.3911 27.4187 8.79995 25.5781 7.89941 23.1924C7.75322 22.8049 7.94951 22.3719 8.33691 22.2256C8.72441 22.0794 9.15744 22.2746 9.30371 22.6621C9.9985 24.503 12.2392 26.1787 15.6045 26.1787C17.3382 26.1787 18.91 25.865 20.0293 25.0889C21.1001 24.3463 21.8574 23.1109 21.8574 21C21.8574 20.0467 21.5202 19.3523 20.9727 18.8008C20.4038 18.2278 19.5828 17.7863 18.5986 17.4287C17.6188 17.0727 16.5371 16.8196 15.4824 16.5898C14.4545 16.3659 13.4137 16.1571 12.6143 15.8906C11.0239 15.3605 9.81623 14.6073 9.01074 13.582C8.19845 12.548 7.8516 11.3094 7.85156 9.92188C7.85156 7.00152 10.5494 4.45874 14.8545 4.19336V2C14.8545 1.58585 15.1904 1.2501 15.6045 1.25Z" fill="#252830"></path>
</svg>